# xmcd CD database file
#
# Track frame offsets:
#	150
#	16715
#	33075
#	55392
#	73802
#	89335
#	109217
#	129647
#	143910
#	155772
#	166047
#	182622
#	204842
#	224260
#	243597
#	264097
#
# Disc length: 3915 seconds
#
# Revision: 5
# Processed by: cddbd v1.5.2PL0 Copyright (c) Steve Scherf et al.
# Submitted via: CDex 1.70beta3
#
DISCID=d90f4910
DTITLE=矢沢永吉 - THE GREAT OF ALL -Special Version-
DYEAR=1993
DGENRE=Rock
TTITLE0=バイ・バイ・サンキュー・ガール
TTITLE1=黒く塗りつぶせ
TTITLE2=ゴールドラッシュ
TTITLE3=チャイナタウン
TTITLE4=古いラブ・レター
TTITLE5=世話がやけるぜ
TTITLE6=時間よ止まれ
TTITLE7=キャロル
TTITLE8=ライフ・イズ・ヴェイン
TTITLE9=ウイスキー・コーク
TTITLE10=雨のハイウェイ
TTITLE11=バーボン人生
TTITLE12=さめた肌
TTITLE13=Mr.T.
TTITLE14=苦い涙
TTITLE15=長い旅
EXTD=YEAR: 1993
EXTT0=
EXTT1=
EXTT2=
EXTT3=
EXTT4=
EXTT5=
EXTT6=
EXTT7=
EXTT8=
EXTT9=
EXTT10=
EXTT11=
EXTT12=
EXTT13=
EXTT14=
EXTT15=
PLAYORDER=
